<?xml version="1.0" encoding="UTF-8"?>
<!DOCTYPE svg PUBLIC "-//W3C//DTD SVG 1.1//EN" "http://www.w3.org/Graphics/SVG/1.1/DTD/svg11.dtd">
<svg xmlns="http://www.w3.org/2000/svg" version="1.1" width="482px" height="480px" style="shape-rendering:geometricPrecision; text-rendering:geometricPrecision; image-rendering:optimizeQuality; fill-rule:evenodd; clip-rule:evenodd" xmlns:xlink="http://www.w3.org/1999/xlink">
<g><path style="opacity:1" fill="#dbd0bf" d="M -0.5,-0.5 C 160.167,-0.5 320.833,-0.5 481.5,-0.5C 481.5,159.5 481.5,319.5 481.5,479.5C 320.833,479.5 160.167,479.5 -0.5,479.5C -0.5,319.5 -0.5,159.5 -0.5,-0.5 Z"/></g>
<g><path style="opacity:1" fill="#1b1927" d="M 270.5,238.5 C 277.972,239.816 285.305,239.149 292.5,236.5C 294.099,236.232 295.432,236.566 296.5,237.5C 293.66,239.915 290.327,241.248 286.5,241.5C 276.823,242.723 267.156,242.723 257.5,241.5C 247.58,238.435 239.746,232.435 234,223.5C 227.783,213.519 223.117,202.852 220,191.5C 217.185,184.366 213.185,178.032 208,172.5C 207.196,176.645 205.363,180.312 202.5,183.5C 201.723,181.219 200.723,179.052 199.5,177C 197.527,176.505 195.527,176.338 193.5,176.5C 193.326,179.874 192.826,183.207 192,186.5C 190.887,187.305 189.721,187.972 188.5,188.5C 191.079,169.232 187.579,151.232 178,134.5C 176.488,132.043 175.154,132.043 174,134.5C 172.023,144.887 169.856,155.22 167.5,165.5C 172.969,165.462 177.136,167.796 180,172.5C 181.741,175.309 182.908,178.309 183.5,181.5C 179.546,179.839 176.546,177.005 174.5,173C 171.431,171.154 168.098,170.154 164.5,170C 163.044,167.734 162.21,165.234 162,162.5C 148.637,165.855 137.971,173.188 130,184.5C 128.415,195.099 125.082,205.099 120,214.5C 116.3,218.535 112.3,222.202 108,225.5C 107.502,228.817 107.335,232.15 107.5,235.5C 106.624,235.369 105.957,235.702 105.5,236.5C 106.313,237.814 107.313,238.981 108.5,240C 112.643,242.05 116.976,243.716 121.5,245C 134.224,247.172 146.891,249.506 159.5,252C 160.701,252.903 161.535,254.069 162,255.5C 162.189,264.739 163.022,273.906 164.5,283C 164.833,283.5 165.167,284 165.5,284.5C 166.271,282.138 167.105,279.804 168,277.5C 169.785,283.4 171.452,289.4 173,295.5C 173.667,296.833 174.333,296.833 175,295.5C 176.005,289.499 177.505,289.832 179.5,296.5C 178.757,304.804 176.757,312.804 173.5,320.5C 173.957,321.298 174.624,321.631 175.5,321.5C 176.167,321.5 176.833,321.5 177.5,321.5C 179.554,321.635 181.221,320.968 182.5,319.5C 182.5,320.5 182.5,321.5 182.5,322.5C 186.371,322.815 190.038,322.482 193.5,321.5C 197.491,314.189 201.991,307.189 207,300.5C 210.052,295.063 212.552,289.397 214.5,283.5C 215.735,288.631 215.235,293.631 213,298.5C 209.031,305.3 204.865,311.966 200.5,318.5C 228.181,319.887 255.848,319.72 283.5,318C 331.968,308.868 363.468,280.702 378,233.5C 380.903,215.26 378.903,197.593 372,180.5C 369.971,184.58 367.471,188.246 364.5,191.5C 360.604,176.433 351.937,164.933 338.5,157C 334.14,154.82 329.807,152.653 325.5,150.5C 324.609,149.89 323.609,149.557 322.5,149.5C 317.33,148.249 312.164,146.916 307,145.5C 305.941,145.63 305.108,146.13 304.5,147C 313.388,151.721 320.055,158.554 324.5,167.5C 324,167.833 323.5,168.167 323,168.5C 320.032,166.922 316.865,166.255 313.5,166.5C 313.068,165.29 312.401,164.29 311.5,163.5C 308.875,159.348 305.542,155.848 301.5,153C 294.964,149.228 288.297,146.061 281.5,143.5C 283.952,142.935 286.285,142.268 288.5,141.5C 322.903,136.788 349.069,149.122 367,178.5C 367.406,174.039 367.072,169.706 366,165.5C 376.823,175.816 382.823,188.482 384,203.5C 387.336,253.667 367.836,291.833 325.5,318C 318.239,320.809 310.906,323.309 303.5,325.5C 302.957,325.56 302.624,325.893 302.5,326.5C 309.134,327.497 315.8,327.83 322.5,327.5C 347.185,328.523 371.852,329.857 396.5,331.5C 398.265,332.461 400.265,332.795 402.5,332.5C 401.833,333.167 401.167,333.833 400.5,334.5C 377.661,334.169 354.994,334.503 332.5,335.5C 263.167,335.5 193.833,335.5 124.5,335.5C 110.673,334.669 96.6727,334.169 82.5,334C 80.5,333.667 78.5,333.333 76.5,333C 78.7078,332.809 80.7078,332.309 82.5,331.5C 107.854,328.999 133.354,327.333 159,326.5C 160.694,318.086 163.194,309.919 166.5,302C 162.217,296.933 159.384,291.1 158,284.5C 156.864,275.468 155.53,266.468 154,257.5C 144.552,256.342 135.052,255.175 125.5,254C 120.387,252.187 115.387,250.187 110.5,248C 104.667,243.5 99.5,238.333 95,232.5C 92.4827,228.53 91.9827,224.364 93.5,220C 106.319,222.266 115.153,217.099 120,204.5C 121.867,198.302 123.201,191.968 124,185.5C 127.048,177.287 132.548,171.621 140.5,168.5C 140.13,158.111 140.63,147.777 142,137.5C 143.617,129.899 147.45,123.899 153.5,119.5C 154.833,119.5 155.5,120.167 155.5,121.5C 156.967,129.481 160.467,136.481 166,142.5C 167.109,134.847 168.109,127.181 169,119.5C 171.968,117.009 175.135,116.843 178.5,119C 193.648,131.144 203.481,146.644 208,165.5C 220.598,176.022 228.598,189.356 232,205.5C 237.505,219.721 247.005,230.221 260.5,237C 263.827,237.61 267.161,238.11 270.5,238.5 Z"/></g>
<g><path style="opacity:1" fill="#f1eeec" d="M 304.5,170.5 C 306.716,171.203 308.549,172.536 310,174.5C 320.136,190.21 321.136,206.543 313,223.5C 309.258,227.747 305.092,231.414 300.5,234.5C 297.627,234.802 294.961,235.469 292.5,236.5C 285.199,237.496 277.866,238.163 270.5,238.5C 267.161,238.11 263.827,237.61 260.5,237C 247.005,230.221 237.505,219.721 232,205.5C 228.598,189.356 220.598,176.022 208,165.5C 203.481,146.644 193.648,131.144 178.5,119C 175.135,116.843 171.968,117.009 169,119.5C 168.109,127.181 167.109,134.847 166,142.5C 160.467,136.481 156.967,129.481 155.5,121.5C 157.786,126.73 160.619,131.73 164,136.5C 164.434,129.351 165.601,122.351 167.5,115.5C 172.071,113.989 176.404,114.489 180.5,117C 190.819,123.651 198.652,132.484 204,143.5C 207.609,149.78 210.275,156.447 212,163.5C 224.006,173.832 231.673,186.832 235,202.5C 237.966,208.147 240.966,213.814 244,219.5C 254.114,232.209 267.28,237.042 283.5,234C 314.547,226.066 323.047,207.566 309,178.5C 307.045,176.089 305.211,173.589 303.5,171C 303.728,170.601 304.062,170.435 304.5,170.5 Z"/></g>
<g><path style="opacity:1" fill="#f3f2f1" d="M 188.5,188.5 C 186.11,186.733 184.443,184.4 183.5,181.5C 182.908,178.309 181.741,175.309 180,172.5C 177.136,167.796 172.969,165.462 167.5,165.5C 169.856,155.22 172.023,144.887 174,134.5C 175.154,132.043 176.488,132.043 178,134.5C 187.579,151.232 191.079,169.232 188.5,188.5 Z"/></g>
<g><path style="opacity:1" fill="#ececea" d="M 396.5,331.5 C 371.852,329.857 347.185,328.523 322.5,327.5C 316.167,326.833 309.833,326.167 303.5,325.5C 310.906,323.309 318.239,320.809 325.5,318C 367.836,291.833 387.336,253.667 384,203.5C 382.823,188.482 376.823,175.816 366,165.5C 367.072,169.706 367.406,174.039 367,178.5C 349.069,149.122 322.903,136.788 288.5,141.5C 286.712,141.785 285.045,141.452 283.5,140.5C 304.194,133.833 323.861,136.333 342.5,148C 347.454,151.285 352.12,154.952 356.5,159C 358.107,159.115 359.607,158.615 361,157.5C 362.893,158.196 364.726,159.03 366.5,160C 386.466,181.344 393.633,206.511 388,235.5C 382.69,265.469 368.19,289.969 344.5,309C 337.55,314.456 330.217,319.29 322.5,323.5C 350.169,325.416 377.836,327.583 405.5,330C 406.167,330.333 406.833,330.667 407.5,331C 403.848,331.499 400.182,331.665 396.5,331.5 Z"/></g>
<g><path style="opacity:1" fill="#ecebe9" d="M 281.5,143.5 C 288.297,146.061 294.964,149.228 301.5,153C 305.542,155.848 308.875,159.348 311.5,163.5C 308.765,162.568 306.099,160.735 303.5,158C 295.139,152.319 286.139,147.986 276.5,145C 277.877,142.699 279.544,142.199 281.5,143.5 Z"/></g>
<g><path style="opacity:1" fill="#f7f4f2" d="M 322.5,149.5 C 323.221,151.382 324.221,151.715 325.5,150.5C 329.807,152.653 334.14,154.82 338.5,157C 351.937,164.933 360.604,176.433 364.5,191.5C 363.949,194.957 361.949,196.624 358.5,196.5C 356.676,189.854 353.509,183.854 349,178.5C 350.407,188.064 350.74,197.731 350,207.5C 349.586,207.957 349.086,208.291 348.5,208.5C 345.281,202.028 341.114,196.362 336,191.5C 334.555,192.742 333.055,193.575 331.5,194C 325.792,183.384 318.126,174.551 308.5,167.5C 309.919,166.549 311.585,166.216 313.5,166.5C 316.865,166.255 320.032,166.922 323,168.5C 323.5,168.167 324,167.833 324.5,167.5C 320.055,158.554 313.388,151.721 304.5,147C 305.108,146.13 305.941,145.63 307,145.5C 312.164,146.916 317.33,148.249 322.5,149.5 Z"/></g>
<g><path style="opacity:1" fill="#e67d68" d="M 322.5,149.5 C 323.609,149.557 324.609,149.89 325.5,150.5C 324.221,151.715 323.221,151.382 322.5,149.5 Z"/></g>
<g><path style="opacity:1" fill="#6b2622" d="M 155.5,153.5 C 157.948,152.527 160.615,152.194 163.5,152.5C 163.795,154.735 163.461,156.735 162.5,158.5C 162.5,156.833 162.5,155.167 162.5,153.5C 160.167,153.5 157.833,153.5 155.5,153.5 Z"/></g>
<g><path style="opacity:1" fill="#e43a21" d="M 155.5,153.5 C 157.833,153.5 160.167,153.5 162.5,153.5C 162.5,155.167 162.5,156.833 162.5,158.5C 157.746,160.452 155.413,158.786 155.5,153.5 Z"/></g>
<g><path style="opacity:1" fill="#e93b21" d="M 183.5,181.5 C 184.443,184.4 186.11,186.733 188.5,188.5C 189.721,187.972 190.887,187.305 192,186.5C 192.826,183.207 193.326,179.874 193.5,176.5C 195.527,176.338 197.527,176.505 199.5,177C 200.723,179.052 201.723,181.219 202.5,183.5C 205.363,180.312 207.196,176.645 208,172.5C 213.185,178.032 217.185,184.366 220,191.5C 223.117,202.852 227.783,213.519 234,223.5C 239.746,232.435 247.58,238.435 257.5,241.5C 258.263,242.268 259.263,242.768 260.5,243C 264.167,243.167 267.833,243.333 271.5,243.5C 276.767,243.713 281.767,243.046 286.5,241.5C 290.327,241.248 293.66,239.915 296.5,237.5C 298.122,236.878 299.455,235.878 300.5,234.5C 305.092,231.414 309.258,227.747 313,223.5C 321.136,206.543 320.136,190.21 310,174.5C 308.549,172.536 306.716,171.203 304.5,170.5C 305.211,168.799 306.545,167.799 308.5,167.5C 318.126,174.551 325.792,183.384 331.5,194C 333.055,193.575 334.555,192.742 336,191.5C 341.114,196.362 345.281,202.028 348.5,208.5C 349.086,208.291 349.586,207.957 350,207.5C 350.74,197.731 350.407,188.064 349,178.5C 353.509,183.854 356.676,189.854 358.5,196.5C 361.949,196.624 363.949,194.957 364.5,191.5C 367.471,188.246 369.971,184.58 372,180.5C 378.903,197.593 380.903,215.26 378,233.5C 363.468,280.702 331.968,308.868 283.5,318C 255.848,319.72 228.181,319.887 200.5,318.5C 204.865,311.966 209.031,305.3 213,298.5C 215.235,293.631 215.735,288.631 214.5,283.5C 212.552,289.397 210.052,295.063 207,300.5C 201.991,307.189 197.491,314.189 193.5,321.5C 190.167,321.5 186.833,321.5 183.5,321.5C 183.5,320.167 183.5,318.833 183.5,317.5C 186.931,309.633 190.097,301.633 193,293.5C 196.937,273.879 193.27,255.879 182,239.5C 172.388,230.28 160.888,225.28 147.5,224.5C 137.969,228.141 128.303,231.641 118.5,235C 114.848,235.499 111.182,235.665 107.5,235.5C 107.335,232.15 107.502,228.817 108,225.5C 112.3,222.202 116.3,218.535 120,214.5C 125.082,205.099 128.415,195.099 130,184.5C 137.971,173.188 148.637,165.855 162,162.5C 162.21,165.234 163.044,167.734 164.5,170C 168.098,170.154 171.431,171.154 174.5,173C 176.546,177.005 179.546,179.839 183.5,181.5 Z"/></g>
<g><path style="opacity:1" fill="#e7cfcb" d="M 157.5,196.5 C 156.167,196.5 154.833,196.5 153.5,196.5C 149.66,195.458 149.826,194.458 154,193.5C 155.908,193.715 157.074,194.715 157.5,196.5 Z"/></g>
<g><path style="opacity:1" fill="#1e1824" d="M 153.5,196.5 C 154.833,196.5 156.167,196.5 157.5,196.5C 162.94,197.386 167.274,200.053 170.5,204.5C 166.204,205.328 161.871,205.828 157.5,206C 155.47,207.896 153.803,210.063 152.5,212.5C 149.232,213.487 145.898,213.82 142.5,213.5C 144.198,206.486 147.864,200.819 153.5,196.5 Z"/></g>
<g><path style="opacity:1" fill="#f9f7f5" d="M 183.5,317.5 C 182.662,317.842 182.328,318.508 182.5,319.5C 181.221,320.968 179.554,321.635 177.5,321.5C 177.389,320.883 177.056,320.383 176.5,320C 182.872,313.428 186.039,305.594 186,296.5C 184.491,299.946 182.991,303.28 181.5,306.5C 180.867,306.12 180.2,305.787 179.5,305.5C 180.783,302.365 180.783,299.365 179.5,296.5C 177.505,289.832 176.005,289.499 175,295.5C 174.333,296.833 173.667,296.833 173,295.5C 171.452,289.4 169.785,283.4 168,277.5C 167.105,279.804 166.271,282.138 165.5,284.5C 165.167,284 164.833,283.5 164.5,283C 163.022,273.906 162.189,264.739 162,255.5C 161.535,254.069 160.701,252.903 159.5,252C 146.891,249.506 134.224,247.172 121.5,245C 116.976,243.716 112.643,242.05 108.5,240C 107.313,238.981 106.313,237.814 105.5,236.5C 105.957,235.702 106.624,235.369 107.5,235.5C 111.182,235.665 114.848,235.499 118.5,235C 128.303,231.641 137.969,228.141 147.5,224.5C 160.888,225.28 172.388,230.28 182,239.5C 193.27,255.879 196.937,273.879 193,293.5C 190.097,301.633 186.931,309.633 183.5,317.5 Z"/></g>
<g><path style="opacity:1" fill="#807178" d="M 300.5,234.5 C 299.455,235.878 298.122,236.878 296.5,237.5C 295.432,236.566 294.099,236.232 292.5,236.5C 294.961,235.469 297.627,234.802 300.5,234.5 Z"/></g>
<g><path style="opacity:1" fill="#686773" d="M 292.5,236.5 C 285.305,239.149 277.972,239.816 270.5,238.5C 277.866,238.163 285.199,237.496 292.5,236.5 Z"/></g>
<g><path style="opacity:1" fill="#622522" d="M 257.5,241.5 C 267.156,242.723 276.823,242.723 286.5,241.5C 281.767,243.046 276.767,243.713 271.5,243.5C 267.833,243.333 264.167,243.167 260.5,243C 259.263,242.768 258.263,242.268 257.5,241.5 Z"/></g>
<g><path style="opacity:1" fill="#ebe9e7" d="M 153.5,119.5 C 147.45,123.899 143.617,129.899 142,137.5C 140.63,147.777 140.13,158.111 140.5,168.5C 132.548,171.621 127.048,177.287 124,185.5C 123.201,191.968 121.867,198.302 120,204.5C 115.153,217.099 106.319,222.266 93.5,220C 91.9827,224.364 92.4827,228.53 95,232.5C 99.5,238.333 104.667,243.5 110.5,248C 115.387,250.187 120.387,252.187 125.5,254C 135.052,255.175 144.552,256.342 154,257.5C 155.53,266.468 156.864,275.468 158,284.5C 159.384,291.1 162.217,296.933 166.5,302C 163.194,309.919 160.694,318.086 159,326.5C 133.354,327.333 107.854,328.999 82.5,331.5C 77.453,331.337 72.453,331.671 67.5,332.5C 68.2297,330.955 69.563,330.122 71.5,330C 99.7633,327.17 128.097,325.336 156.5,324.5C 158.75,317.322 160.416,309.989 161.5,302.5C 161.333,300.833 161.167,299.167 161,297.5C 158.223,294.282 156.223,290.615 155,286.5C 154.108,277.813 153.274,269.147 152.5,260.5C 134.779,260.569 118.445,256.069 103.5,247C 99.7506,240.91 95.584,235.076 91,229.5C 89.4915,225.654 89.3249,221.821 90.5,218C 100.006,219.5 107.84,216.667 114,209.5C 116.839,202.808 118.506,195.808 119,188.5C 121.321,178.521 126.987,171.187 136,166.5C 135.576,154.505 137.243,142.838 141,131.5C 143.216,125.342 147.049,120.675 152.5,117.5C 154.721,117.439 155.054,118.105 153.5,119.5 Z"/></g>
<g><path style="opacity:1" fill="#d74c34" d="M 179.5,296.5 C 180.783,299.365 180.783,302.365 179.5,305.5C 180.2,305.787 180.867,306.12 181.5,306.5C 181.628,308.655 181.128,310.655 180,312.5C 179.641,309.456 178.974,309.122 178,311.5C 177.057,314.824 176.224,318.157 175.5,321.5C 174.624,321.631 173.957,321.298 173.5,320.5C 176.757,312.804 178.757,304.804 179.5,296.5 Z"/></g>
<g><path style="opacity:1" fill="#dfcebd" d="M 177.5,321.5 C 176.833,321.5 176.167,321.5 175.5,321.5C 176.224,318.157 177.057,314.824 178,311.5C 178.974,309.122 179.641,309.456 180,312.5C 181.128,310.655 181.628,308.655 181.5,306.5C 182.991,303.28 184.491,299.946 186,296.5C 186.039,305.594 182.872,313.428 176.5,320C 177.056,320.383 177.389,320.883 177.5,321.5 Z"/></g>
<g><path style="opacity:1" fill="#622622" d="M 183.5,317.5 C 183.5,318.833 183.5,320.167 183.5,321.5C 186.833,321.5 190.167,321.5 193.5,321.5C 190.038,322.482 186.371,322.815 182.5,322.5C 182.5,321.5 182.5,320.5 182.5,319.5C 182.328,318.508 182.662,317.842 183.5,317.5 Z"/></g>
<g><path style="opacity:1" fill="#8a8a93" d="M 303.5,325.5 C 309.833,326.167 316.167,326.833 322.5,327.5C 315.8,327.83 309.134,327.497 302.5,326.5C 302.624,325.893 302.957,325.56 303.5,325.5 Z"/></g>
<g><path style="opacity:1" fill="#4e4f5b" d="M 402.5,332.5 C 404.924,332.192 407.257,332.526 409.5,333.5C 406.572,334.484 403.572,334.817 400.5,334.5C 401.167,333.833 401.833,333.167 402.5,332.5 Z"/></g>
<g><path style="opacity:1" fill="#71727c" d="M 82.5,331.5 C 80.7078,332.309 78.7078,332.809 76.5,333C 78.5,333.333 80.5,333.667 82.5,334C 96.6727,334.169 110.673,334.669 124.5,335.5C 105.486,335.691 86.4861,335.358 67.5,334.5C 67.5,333.833 67.5,333.167 67.5,332.5C 72.453,331.671 77.453,331.337 82.5,331.5 Z"/></g>
<g><path style="opacity:1" fill="#f7f6f4" d="M 67.5,334.5 C 86.4861,335.358 105.486,335.691 124.5,335.5C 157.003,336.167 189.669,336.833 222.5,337.5C 222.833,338.167 223.167,338.833 223.5,339.5C 185.838,340.667 148.171,340.833 110.5,340C 98.4713,339.777 86.4713,339.11 74.5,338C 71.5547,337.861 69.2214,336.694 67.5,334.5 Z"/></g>
<g><path style="opacity:1" fill="#f7f6f4" d="M 332.5,335.5 C 357.842,335.167 383.175,335.5 408.5,336.5C 407.624,337.251 406.624,337.751 405.5,338C 357.194,340.395 308.86,341.061 260.5,340C 256.713,339.84 253.046,339.174 249.5,338C 277.336,337.394 305.002,336.56 332.5,335.5 Z"/></g>
</svg>
