<?xml version="1.0" standalone="no"?>
<!DOCTYPE svg PUBLIC "-//W3C//DTD SVG 20010904//EN"
 "http://www.w3.org/TR/2001/REC-SVG-20010904/DTD/svg10.dtd">
<svg version="1.0" xmlns="http://www.w3.org/2000/svg"
 width="6667.000000pt" height="6667.000000pt" viewBox="0 0 6667.000000 6667.000000"
 preserveAspectRatio="xMidYMid meet">

<g transform="translate(0.000000,6667.000000) scale(0.100000,-0.100000)"
fill="#000000" stroke="none">
<path d="M27605 50650 c-285 -32 -557 -105 -808 -216 -55 -24 -191 -91 -302
-148 -1682 -863 -3019 -2416 -3639 -4224 -257 -751 -375 -1452 -393 -2332 -17
-854 127 -1724 443 -2669 45 -134 73 -234 70 -247 -10 -40 -163 -282 -325
-512 -212 -304 -274 -403 -420 -675 -297 -552 -503 -1074 -708 -1797 -61 -216
-90 -288 -159 -391 -87 -132 -206 -234 -359 -312 -93 -46 -157 -64 -295 -82
-592 -78 -1020 -260 -1355 -577 -159 -150 -325 -376 -420 -573 -147 -302 -213
-613 -202 -960 8 -250 23 -323 137 -650 232 -667 404 -1095 600 -1490 565
-1142 1231 -2174 1998 -3099 117 -141 844 -890 1015 -1045 1125 -1022 2401
-1849 3737 -2422 204 -88 229 -104 230 -150 0 -8 -44 -94 -98 -190 -723 -1283
-1171 -2473 -1367 -3627 -38 -229 -75 -533 -75 -625 0 -45 16 -309 35 -587 37
-547 52 -661 125 -954 264 -1052 887 -1947 1865 -2676 856 -640 1975 -1094
3200 -1300 339 -57 426 -64 1100 -92 316 -13 4133 -16 4385 -3 1581 79 3029
580 4185 1446 746 559 1304 1279 1628 2099 148 375 223 682 278 1135 27 227
38 789 20 1038 -70 959 -335 1926 -821 2992 -116 255 -198 416 -388 764 -153
281 -295 570 -304 614 -2 15 34 35 212 111 926 398 1765 873 2535 1434 233
170 409 306 457 354 154 154 181 440 60 633 -98 156 -305 254 -480 227 -134
-20 -187 -49 -419 -228 -588 -454 -1378 -931 -2123 -1284 -1423 -674 -3014
-1123 -4625 -1304 -1489 -168 -2744 -197 -3985 -91 -96 8 -238 19 -315 25
-402 31 -963 98 -1375 166 -2289 376 -4325 1202 -6007 2436 -1835 1346 -3281
3283 -4150 5558 -112 293 -219 617 -233 703 -20 121 -8 332 24 440 51 171 132
303 263 428 175 167 328 226 788 304 385 65 494 104 805 286 249 145 462 396
757 894 l108 182 110 80 c613 446 1345 818 2099 1068 461 152 1021 279 1341
305 279 22 396 45 503 99 157 80 272 259 272 425 0 237 -175 463 -399 516
-124 29 -661 -27 -1071 -111 -612 -127 -1297 -357 -2080 -699 -91 -40 -179
-78 -197 -86 l-32 -14 26 58 c101 229 362 661 576 957 473 650 1208 1380 1886
1873 1260 915 2666 1556 4306 1963 855 212 1699 340 2715 411 281 20 1254 17
1585 -5 1468 -97 2779 -365 4045 -827 1424 -520 2676 -1257 3670 -2157 585
-531 1088 -1137 1467 -1768 86 -143 273 -485 273 -499 0 -3 -15 0 -32 8 -18 8
-116 51 -218 96 -1105 486 -2101 754 -3059 821 -218 15 -797 6 -991 -16 -960
-107 -1678 -321 -2504 -743 -809 -414 -1625 -1032 -2277 -1724 -84 -90 -196
-206 -249 -259 -178 -180 -391 -292 -663 -351 -137 -29 -419 -32 -547 -5 -193
40 -369 115 -510 216 -58 41 -166 144 -340 323 -269 276 -464 462 -695 663
-936 813 -1923 1364 -2949 1646 -209 57 -274 62 -376 26 -87 -31 -143 -68
-213 -140 -110 -114 -163 -275 -139 -419 19 -110 63 -191 151 -279 88 -88 174
-134 311 -169 319 -80 840 -296 1222 -505 685 -376 1385 -926 1976 -1555 95
-102 208 -216 250 -254 356 -319 795 -517 1302 -587 140 -20 469 -17 610 5
345 52 688 183 960 366 170 114 321 250 685 615 424 425 631 611 969 864 889
666 1860 1084 2811 1210 295 39 422 46 800 46 457 -1 701 -22 1129 -101 965
-176 1978 -597 2871 -1194 230 -154 284 -216 490 -570 130 -222 169 -281 251
-381 68 -82 96 -107 259 -229 288 -216 548 -312 1143 -420 254 -46 318 -68
442 -151 220 -147 381 -392 431 -656 7 -37 10 -114 7 -195 -6 -151 -8 -159
-140 -523 -581 -1596 -1421 -3022 -2501 -4245 -315 -356 -372 -488 -302 -696
42 -124 119 -224 228 -295 109 -71 230 -98 330 -75 186 43 291 131 642 541
965 1124 1726 2372 2327 3814 103 248 277 709 336 891 203 626 90 1308 -302
1828 -199 262 -401 430 -691 573 -272 134 -553 213 -879 249 -266 30 -487 163
-648 390 -91 129 -127 218 -198 495 -50 196 -186 606 -269 813 -265 661 -638
1329 -1084 1941 l-105 143 39 100 c366 938 554 2042 511 2996 -17 374 -37 559
-108 987 -333 2019 -1535 3857 -3264 4991 -681 446 -1175 666 -1660 739 -233
35 -623 30 -865 -11 -440 -74 -882 -273 -1245 -560 -188 -148 -546 -535 -836
-905 -770 -979 -1417 -2174 -1942 -3589 -43 -118 -87 -239 -97 -269 l-18 -54
-135 7 c-294 14 -824 17 -1147 8 -380 -11 -375 -12 -420 56 -24 37 -50 101
-151 377 -561 1529 -1319 2838 -2273 3925 -75 85 -182 200 -238 256 -397 399
-933 664 -1526 755 -150 23 -545 34 -682 19z m485 -1020 c125 -16 314 -64 432
-110 283 -112 498 -268 719 -522 803 -920 1426 -1930 1894 -3073 102 -250 283
-752 274 -759 -2 -2 -69 -13 -149 -25 -242 -38 -749 -129 -1040 -187 -614
-123 -1088 -246 -1565 -406 -132 -44 -246 -81 -252 -82 -8 0 -32 56 -61 139
-452 1297 -1303 2396 -2442 3150 -153 102 -397 246 -544 321 -42 22 -76 42
-76 46 0 3 66 69 148 146 546 518 1058 883 1617 1153 270 130 429 184 614 208
95 12 333 13 431 1z m11025 -19 c174 -36 291 -80 520 -196 609 -308 1089 -648
1549 -1095 65 -63 136 -136 158 -162 l39 -47 -80 -40 c-371 -187 -823 -494
-1170 -795 -840 -729 -1448 -1622 -1798 -2643 -35 -103 -60 -162 -67 -160 -67
26 -410 132 -601 187 -635 181 -1399 343 -2351 500 l-71 11 52 142 c339 922
732 1726 1197 2451 324 504 765 1065 1098 1396 226 225 543 389 867 449 155
29 159 29 368 26 142 -3 215 -9 290 -24z m-14260 -2441 c792 -389 1449 -975
1949 -1738 190 -288 356 -608 479 -922 69 -175 140 -386 135 -401 -2 -5 -84
-47 -184 -93 -1201 -556 -2374 -1327 -3262 -2145 -63 -58 -131 -121 -153 -139
l-38 -33 -35 113 c-78 251 -147 552 -191 838 -242 1554 105 3189 948 4478 94
144 102 153 126 147 14 -3 116 -50 226 -105z m17302 -22 c563 -859 889 -1808
1000 -2908 25 -251 25 -951 0 -1200 -23 -228 -60 -486 -98 -680 -27 -138 -94
-424 -119 -505 -5 -16 -18 -63 -30 -103 l-21 -73 -147 138 c-925 870 -1953
1556 -3227 2154 l-250 117 3 31 c4 51 116 375 188 547 381 900 1021 1671 1825
2197 233 153 394 239 739 394 14 7 32 12 41 12 9 1 47 -48 96 -121z m-14652
-21418 c58 -22 478 -143 727 -209 1345 -359 2753 -565 4243 -621 512 -19 1738
-8 2200 20 1402 85 2823 329 4270 736 132 37 249 69 261 71 17 4 39 -29 156
-234 671 -1178 1059 -2118 1238 -3003 85 -422 110 -648 117 -1069 8 -462 -16
-721 -96 -1039 -194 -765 -659 -1477 -1306 -1997 -672 -540 -1534 -949 -2440
-1159 -160 -37 -426 -88 -431 -83 -2 2 37 61 87 133 338 483 637 1061 848
1640 237 652 374 1302 422 1998 15 216 10 277 -29 361 -75 160 -259 265 -462
265 -250 -1 -442 -141 -480 -350 -5 -30 -19 -134 -31 -230 -102 -847 -322
-1651 -623 -2275 -326 -676 -760 -1204 -1287 -1568 -94 -65 -98 -67 -185 -77
-98 -11 -604 -14 -755 -4 l-95 7 4 1906 c4 1947 2 2101 -33 2236 -51 195 -164
302 -367 350 -175 41 -359 -15 -494 -149 -102 -103 -116 -141 -125 -366 -4
-96 -7 -1030 -8 -2076 l-1 -1901 -142 -6 c-212 -10 -611 -8 -707 3 -77 9 -91
14 -164 62 -686 450 -1232 1228 -1578 2248 -73 215 -123 384 -188 645 -56 224
-70 311 -106 636 -36 328 -67 488 -125 642 -43 116 -144 208 -270 248 -77 24
-209 28 -290 9 -155 -36 -293 -137 -352 -258 l-33 -67 1 -180 c2 -281 42 -614
124 -1025 190 -949 577 -1878 1131 -2712 54 -82 94 -148 88 -148 -5 0 -88 16
-183 35 -839 169 -1602 473 -2240 892 -302 199 -511 367 -757 613 -435 434
-717 867 -889 1367 -230 664 -270 1502 -110 2303 198 997 606 2016 1238 3090
191 324 179 308 227 290z"/>
<path d="M28785 34954 c-186 -39 -298 -139 -365 -324 -48 -130 -52 -188 -48
-650 5 -471 6 -478 73 -617 27 -55 53 -87 108 -138 174 -159 353 -182 572 -72
74 37 183 144 219 215 59 116 60 134 61 642 0 511 -4 558 -57 669 -64 134
-233 257 -388 281 -80 12 -88 12 -175 -6z"/>
<path d="M37690 34960 c-75 -14 -183 -59 -235 -98 -97 -74 -156 -193 -186
-377 -14 -89 -19 -607 -8 -815 14 -255 74 -380 234 -495 88 -62 160 -87 260
-88 185 -1 374 106 458 261 54 99 59 153 59 647 0 500 -7 605 -47 689 -32 68
-108 153 -175 196 -101 65 -256 99 -360 80z"/>
<path d="M31176 33594 c-148 -36 -280 -137 -336 -256 -39 -84 -54 -198 -47
-358 18 -383 155 -688 437 -971 223 -224 437 -340 757 -411 85 -19 128 -22
318 -22 191 0 234 3 325 22 223 49 447 144 612 263 74 52 85 57 103 45 177
-116 422 -228 620 -285 287 -82 621 -73 913 24 369 124 701 421 881 789 115
236 185 584 151 751 -48 236 -283 425 -530 425 -180 0 -365 -129 -431 -300
-12 -30 -41 -133 -65 -229 -67 -267 -108 -338 -253 -433 -90 -59 -152 -78
-251 -78 -133 0 -256 50 -361 147 -78 72 -92 104 -163 359 -79 287 -87 307
-165 385 -196 195 -500 198 -695 6 -75 -74 -109 -141 -142 -281 -96 -397 -117
-439 -277 -533 -115 -69 -132 -75 -223 -80 -145 -10 -272 38 -385 144 -102 97
-132 166 -207 478 -16 66 -40 143 -53 170 -27 60 -117 150 -186 188 -99 53
-231 69 -347 41z"/>
</g>
</svg>
