<?xml version="1.0" encoding="UTF-8"?>
<!DOCTYPE svg PUBLIC "-//W3C//DTD SVG 1.1//EN" "http://www.w3.org/Graphics/SVG/1.1/DTD/svg11.dtd">
<svg xmlns="http://www.w3.org/2000/svg" version="1.1" width="6667px" height="6667px" style="shape-rendering:geometricPrecision; text-rendering:geometricPrecision; image-rendering:optimizeQuality; fill-rule:evenodd; clip-rule:evenodd" xmlns:xlink="http://www.w3.org/1999/xlink">
<g><path style="opacity:1" fill="#000000" d="M 2764.5,1600.5 C 2830.37,1596.63 2890.7,1612.8 2945.5,1649C 2963.88,1662.37 2980.71,1677.54 2996,1694.5C 3085.55,1795.84 3156.22,1909.5 3208,2035.5C 3220.57,2066.63 3232.57,2097.97 3244,2129.5C 3246.28,2136.46 3250.95,2140.46 3258,2141.5C 3308.16,2138.9 3358.33,2138.9 3408.5,2141.5C 3411.5,2141.17 3414.5,2140.83 3417.5,2140.5C 3454.5,2032.83 3503,1930.83 3563,1834.5C 3600.94,1775.2 3644.78,1720.36 3694.5,1670C 3776.75,1601.02 3869.09,1583.35 3971.5,1617C 4100.23,1673.05 4205.06,1758.55 4286,1873.5C 4398.14,2038.2 4440.14,2219.53 4412,2417.5C 4403.06,2473.53 4388.06,2527.87 4367,2580.5C 4366.33,2582.5 4366.33,2584.5 4367,2586.5C 4439.57,2681.31 4490.57,2786.98 4520,2903.5C 4532.43,2932.94 4553.93,2952.1 4584.5,2961C 4623.68,2964.17 4660.68,2974.84 4695.5,2993C 4758.53,3032.86 4791.2,3090.36 4793.5,3165.5C 4793.47,3183.53 4790.97,3201.2 4786,3218.5C 4726.75,3396.45 4637.08,3556.45 4517,3698.5C 4505.2,3711.97 4493.03,3725.13 4480.5,3738C 4453.93,3758.9 4429.1,3757.06 4406,3732.5C 4397.19,3720.93 4393.52,3707.93 4395,3693.5C 4398.93,3681.64 4404.93,3670.98 4413,3661.5C 4538.36,3522.55 4630.69,3363.55 4690,3184.5C 4696.53,3135.4 4678.03,3099.24 4634.5,3076C 4630.88,3074.51 4627.22,3073.18 4623.5,3072C 4593.59,3067.68 4564.26,3061.02 4535.5,3052C 4506.42,3041.23 4481.59,3024.39 4461,3001.5C 4457.67,2996.83 4454.33,2992.17 4451,2987.5C 4441.5,2970.5 4431.5,2953.84 4421,2937.5C 4415.91,2930.4 4410.07,2923.9 4403.5,2918C 4303.78,2847.75 4193.45,2803.08 4072.5,2784C 3945.5,2765.67 3825.83,2787.33 3713.5,2849C 3658.74,2879.55 3608.4,2916.22 3562.5,2959C 3541.8,2979.36 3521.47,3000.03 3501.5,3021C 3434.92,3084.24 3356.92,3104.58 3267.5,3082C 3230.71,3071.12 3198.38,3052.78 3170.5,3027C 3109.5,2957.91 3039.5,2900.24 2960.5,2854C 2916.53,2829.18 2870.2,2810.18 2821.5,2797C 2790.44,2784.39 2778.94,2761.89 2787,2729.5C 2800.36,2701.79 2821.86,2691.96 2851.5,2700C 2912.52,2716.56 2970.19,2740.89 3024.5,2773C 3081.63,2807.75 3134.63,2848.09 3183.5,2894C 3206.55,2917.05 3229.55,2940.05 3252.5,2963C 3293.63,2990.97 3337.63,2996.3 3384.5,2979C 3397.78,2974.03 3409.78,2967.03 3420.5,2958C 3473.45,2898.35 3532.45,2846.02 3597.5,2801C 3789.1,2672.63 3995.1,2643.3 4215.5,2713C 4264.73,2728.8 4312.73,2747.63 4359.5,2769.5C 4359.83,2769.17 4360.17,2768.83 4360.5,2768.5C 4318.41,2685.56 4263.07,2612.39 4194.5,2549C 4107.2,2469.82 4009.2,2406.48 3900.5,2359C 3704,2274.55 3498.67,2235.55 3284.5,2242C 3100.33,2248.46 2923.99,2288.8 2755.5,2363C 2667.56,2403.27 2586.23,2453.6 2511.5,2514C 2453.64,2562.85 2402.48,2617.68 2358,2678.5C 2338.23,2707.02 2320.73,2737.02 2305.5,2768.5C 2321.14,2762.7 2336.81,2756.2 2352.5,2749C 2417.57,2720.9 2484.9,2699.9 2554.5,2686C 2579.82,2681.56 2605.32,2678.72 2631,2677.5C 2658.83,2678.99 2676.17,2693.32 2683,2720.5C 2685.54,2742.25 2677.7,2759.08 2659.5,2771C 2654.74,2773.59 2649.74,2775.59 2644.5,2777C 2499.34,2791.12 2368.34,2841.12 2251.5,2927C 2236.02,2955.47 2218.19,2982.3 2198,3007.5C 2177.4,3029.23 2152.9,3045.06 2124.5,3055C 2103.14,3060.87 2081.47,3065.21 2059.5,3068C 2019.55,3074.96 1992.71,3097.46 1979,3135.5C 1975.14,3152.01 1974.47,3168.68 1977,3185.5C 2043.56,3394.26 2155.73,3573.76 2313.5,3724C 2435.77,3835.2 2575.1,3919.53 2731.5,3977C 2851.67,4020.75 2975.33,4049.42 3102.5,4063C 3141.82,4066.52 3181.15,4069.86 3220.5,4073C 3358.06,4080.2 3495.06,4074.2 3631.5,4055C 3777.72,4033.04 3917.72,3990.7 4051.5,3928C 4131.15,3889.58 4205.48,3843.25 4274.5,3789C 4287.16,3780 4301.16,3777 4316.5,3780C 4334.31,3784.48 4346.48,3795.31 4353,3812.5C 4358.91,3833.6 4354.41,3852.1 4339.5,3868C 4242.26,3944.49 4135.93,4006.49 4020.5,4054C 4026.63,4068.76 4033.46,4083.26 4041,4097.5C 4094.7,4188.92 4133.7,4286.26 4158,4389.5C 4174.34,4462.19 4178.01,4535.52 4169,4609.5C 4152.3,4713.74 4106.47,4802.57 4031.5,4876C 3970.28,4932.81 3900.61,4976.81 3822.5,5008C 3737.01,5041.69 3648.35,5060.36 3556.5,5064C 3416.5,5064.67 3276.5,5064.67 3136.5,5064C 2988.77,5063.58 2852.11,5024.91 2726.5,4948C 2666.19,4909.72 2615.03,4861.56 2573,4803.5C 2532.36,4744.26 2507.02,4678.92 2497,4607.5C 2495.12,4572.48 2492.95,4537.48 2490.5,4502.5C 2497.24,4427.41 2513.4,4354.41 2539,4283.5C 2567.3,4206.23 2602.3,4132.23 2644,4061.5C 2644.58,4058.74 2644.25,4056.08 2643,4053.5C 2499.15,3992.55 2369.32,3910.38 2253.5,3807C 2219.78,3774.07 2186.61,3740.57 2154,3706.5C 2065.33,3600.03 1991.33,3483.69 1932,3357.5C 1911.89,3308.84 1893.56,3259.51 1877,3209.5C 1862.77,3133.2 1883.6,3068.37 1939.5,3015C 1978.47,2983.53 2023.14,2965.87 2073.5,2962C 2108.41,2955.75 2132.58,2936.25 2146,2903.5C 2166.21,2821.84 2197.54,2744.84 2240,2672.5C 2254.67,2651.17 2269.33,2629.83 2284,2608.5C 2288.33,2601.17 2292.67,2593.83 2297,2586.5C 2297.67,2584.17 2297.67,2581.83 2297,2579.5C 2239.87,2426.69 2230.54,2271.03 2269,2112.5C 2317.11,1940.33 2412.61,1801.16 2555.5,1695C 2593.06,1668.38 2632.73,1645.04 2674.5,1625C 2703.25,1611.82 2733.25,1603.65 2764.5,1600.5 Z"/></g>
<g><path style="opacity:1" fill="#010101" d="M 2879.5,3170.5 C 2908.28,3168.49 2927.78,3180.82 2938,3207.5C 2940.99,3242.46 2941.32,3277.46 2939,3312.5C 2934.33,3336.84 2919.83,3351.67 2895.5,3357C 2871.44,3359.61 2853.94,3350.11 2843,3328.5C 2839.44,3320.57 2837.44,3312.24 2837,3303.5C 2836.33,3275.5 2836.33,3247.5 2837,3219.5C 2839.21,3205.25 2845.04,3192.75 2854.5,3182C 2861.92,3175.95 2870.25,3172.12 2879.5,3170.5 Z"/></g>
<g><path style="opacity:1" fill="#000000" d="M 3765.5,3170.5 C 3785.99,3168.05 3803.15,3174.38 3817,3189.5C 3820.72,3194.28 3823.39,3199.61 3825,3205.5C 3826.58,3241.81 3826.92,3278.15 3826,3314.5C 3821.79,3338.54 3807.63,3352.7 3783.5,3357C 3758.26,3359.1 3740.43,3348.6 3730,3325.5C 3728.54,3319.86 3727.21,3314.2 3726,3308.5C 3725.33,3279.17 3725.33,3249.83 3726,3220.5C 3727.54,3194.32 3740.71,3177.65 3765.5,3170.5 Z"/></g>
<g><path style="opacity:1" fill="#000000" d="M 3122.5,3305.5 C 3139.7,3304.4 3154.2,3310.06 3166,3322.5C 3168.59,3326.67 3170.92,3331.01 3173,3335.5C 3175.8,3348.64 3179.13,3361.64 3183,3374.5C 3194.43,3401.46 3214.59,3412.63 3243.5,3408C 3257.25,3403.91 3267.75,3395.74 3275,3383.5C 3279.97,3369.65 3283.8,3355.48 3286.5,3341C 3292.46,3322.04 3305.13,3310.37 3324.5,3306C 3343.94,3303.73 3360.1,3309.9 3373,3324.5C 3375.53,3328.22 3377.53,3332.22 3379,3336.5C 3383.41,3354.13 3388.74,3371.46 3395,3388.5C 3412.75,3409.65 3434.25,3414.81 3459.5,3404C 3469.85,3398.5 3477.35,3390.33 3482,3379.5C 3485.47,3367.96 3488.47,3356.29 3491,3344.5C 3496.51,3324.32 3509.34,3311.49 3529.5,3306C 3557.68,3304.16 3577.51,3315.99 3589,3341.5C 3593.42,3399.5 3572.58,3446.34 3526.5,3482C 3489.74,3506.94 3449.4,3515.27 3405.5,3507C 3379.09,3500.37 3354.59,3489.54 3332,3474.5C 3285.8,3508.51 3234.97,3517.67 3179.5,3502C 3119.64,3478.8 3086.14,3435.3 3079,3371.5C 3077.82,3359.3 3078.82,3347.3 3082,3335.5C 3090.26,3318.41 3103.76,3308.41 3122.5,3305.5 Z"/></g>
</svg>
